name GIL08_static.mot
datacolumns 141
datarows 4
range 0.47499999 0.50000000
endheader

                time	           pelvis_tx	           pelvis_ty	           pelvis_tz	         pelvis_tilt	         pelvis_list	     pelvis_rotation	       hip_flexion_r	     hip_adduction_r	      hip_rotation_r	        knee_angle_r	       ankle_angle_r	    subtalar_angle_r	         mtp_angle_r	       hip_flexion_l	     hip_adduction_l	      hip_rotation_l	        knee_angle_l	       ankle_angle_l	    subtalar_angle_l	         mtp_angle_l	    lumbar_extension	      lumbar_bending	     lumbar_rotation	    ground_marker_px	    ground_marker_py	    ground_marker_pz	    ground_marker_px	    ground_marker_py	    ground_marker_pz	    ground_marker_px	    ground_marker_py	    ground_marker_pz	    ground_marker_px	    ground_marker_py	    ground_marker_pz	    ground_marker_px	    ground_marker_py	    ground_marker_pz	    ground_marker_px	    ground_marker_py	    ground_marker_pz	    ground_marker_px	    ground_marker_py	    ground_marker_pz	    ground_marker_px	    ground_marker_py	    ground_marker_pz	    ground_marker_px	    ground_marker_py	    ground_marker_pz	    ground_marker_px	    ground_marker_py	    ground_marker_pz	    ground_marker_px	    ground_marker_py	    ground_marker_pz	    ground_marker_px	    ground_marker_py	    ground_marker_pz	    ground_marker_px	    ground_marker_py	    ground_marker_pz	    ground_marker_px	    ground_marker_py	    ground_marker_pz	    ground_marker_px	    ground_marker_py	    ground_marker_pz	    ground_marker_px	    ground_marker_py	    ground_marker_pz	    ground_marker_px	    ground_marker_py	    ground_marker_pz	    ground_marker_px	    ground_marker_py	    ground_marker_pz	    ground_marker_px	    ground_marker_py	    ground_marker_pz	    ground_marker_px	    ground_marker_py	    ground_marker_pz	    ground_marker_px	    ground_marker_py	    ground_marker_pz	    ground_marker_px	    ground_marker_py	    ground_marker_pz	    ground_marker_px	    ground_marker_py	    ground_marker_pz	    ground_marker_px	    ground_marker_py	    ground_marker_pz	    ground_marker_px	    ground_marker_py	    ground_marker_pz	    ground_marker_px	    ground_marker_py	    ground_marker_pz	    ground_marker_px	    ground_marker_py	    ground_marker_pz	    ground_marker_px	    ground_marker_py	    ground_marker_pz	    ground_marker_px	    ground_marker_py	    ground_marker_pz	    ground_marker_px	    ground_marker_py	    ground_marker_pz	    ground_marker_px	    ground_marker_py	    ground_marker_pz	    ground_marker_px	    ground_marker_py	    ground_marker_pz	    ground_marker_px	    ground_marker_py	    ground_marker_pz	    ground_marker_px	    ground_marker_py	    ground_marker_pz	    ground_marker_px	    ground_marker_py	    ground_marker_pz	    ground_marker_px	    ground_marker_py	    ground_marker_pz	    ground_marker_px	    ground_marker_py	    ground_marker_pz	    ground_marker_px	    ground_marker_py	    ground_marker_pz	    ground_marker_px	    ground_marker_py	    ground_marker_pz	
          0.47499999	          0.78183472	          0.99627769	         -0.27750671	          9.88822174	          0.99004585	          1.06728280	        -11.31976986	         -4.34166098	         10.89695549	         -9.25193119	          9.69400024	          0.00000000	          0.00000000	         -9.88919449	         -3.16327786	          5.82295609	         -7.17785549	          6.54572344	          0.00000000	          0.00000000	        -22.10782051	         -1.65922797	         -0.59561300	          0.71493030	          0.91035056	         -0.27380443	          0.71357334	          0.89147615	         -0.22485879	          0.71165752	          0.89338917	         -0.33139434	          0.70384955	          0.47932747	         -0.20081149	          0.71124059	          0.48145735	         -0.36158293	          0.62509012	          0.06993130	         -0.17934760	          0.65595567	          0.06860559	         -0.35761380	          0.78183472	          0.99627769	         -0.27750671	          0.78374779	          0.99436742	         -0.17112294	          0.77992165	          0.99818790	         -0.38389045	          0.57874006	          1.00274312	         -0.23034617	          0.57566977	          1.00479579	         -0.31845099	          0.71625012	          0.48242548	         -0.14270058	          0.71621376	          0.48578599	         -0.42071652	          0.69092965	          0.50042254	         -0.25932425	          0.70089829	          0.48996413	         -0.31414998	          0.62317652	          0.07228535	         -0.14146891	          0.65212399	          0.06874073	         -0.39692727	          0.62206829	          0.07022841	         -0.20986389	          0.66390729	          0.07504031	         -0.32832736	          0.58047813	          0.04575319	         -0.19038075	          0.60948342	          0.04548470	         -0.35587955	          0.69324678	          1.39282215	         -0.28155223	          0.73893279	          1.19306111	         -0.28642389	          0.60327435	          1.46038365	         -0.28884465	          0.70673192	          1.39302349	         -0.20011759	          0.70460153	          1.39107919	         -0.35538304	          0.74550825	          0.04274955	         -0.18316892	          0.78354609	          0.04213169	         -0.37268329	          0.75534678	          0.60172623	         -0.07016148	          0.85758913	          0.62574852	         -0.36156625	          0.76655209	          0.65936399	         -0.14351234	          0.78173637	          0.68453622	         -0.39834952	          0.76297551	          0.57740855	         -0.16393812	          0.77293211	          0.59831339	         -0.40008590	          0.65376353	          0.14399983	         -0.07809411	          0.77126896	          0.17036930	         -0.35618979	          0.64524615	          0.20225762	         -0.14086203	          0.70692378	          0.22460833	         -0.36475158	
          0.48333332	          0.78172952	          0.99636847	         -0.27744591	          9.91911507	          0.98294830	          1.05267572	        -11.34794521	         -4.32963037	         10.89653683	         -9.26119328	          9.72891235	          0.00000000	          0.00000000	         -9.91629791	         -3.17560649	          5.82026339	         -7.18777275	          6.56455755	          0.00000000	          0.00000000	        -21.97084236	         -1.74489009	         -0.40543446	          0.71483225	          0.91035181	         -0.27370915	          0.71351105	          0.89153749	         -0.22480114	          0.71162087	          0.89343524	         -0.33133742	          0.70379758	          0.47938916	         -0.20078439	          0.71123517	          0.48149255	         -0.36155736	          0.62498188	          0.06996947	         -0.17933445	          0.65589893	          0.06862855	         -0.35760006	          0.78172952	          0.99636847	         -0.27744591	          0.78361714	          0.99447334	         -0.17105594	          0.77984190	          0.99826360	         -0.38383591	          0.57860935	          1.00272799	         -0.23032457	          0.57557821	          1.00477397	         -0.31841627	          0.71618330	          0.48248371	         -0.14267012	          0.71621954	          0.48582581	         -0.42068967	          0.69078761	          0.50055563	         -0.25925243	          0.70083255	          0.49016035	         -0.31418639	          0.62305987	          0.07232395	         -0.14145619	          0.65207511	          0.06876422	         -0.39691433	          0.62195241	          0.07031818	         -0.20986797	          0.66374350	          0.07513503	         -0.32831535	          0.58047873	          0.04572023	         -0.19037554	          0.60947561	          0.04548391	         -0.35587814	          0.69338441	          1.39302230	         -0.28147915	          0.73963439	          1.19339049	         -0.28632456	          0.60314590	          1.46034002	         -0.28883314	          0.70713407	          1.39333487	         -0.20010042	          0.70450366	          1.39124703	         -0.35533381	          0.74548125	          0.04279758	         -0.18316263	          0.78350675	          0.04216890	         -0.37267807	          0.75523734	          0.60176378	         -0.07012442	          0.85755253	          0.62584704	         -0.36150482	          0.76643944	          0.65948647	         -0.14346984	          0.78175527	          0.68474919	         -0.39831120	          0.76285523	          0.57755953	         -0.16388085	          0.77293158	          0.59849030	         -0.40006667	          0.65369397	          0.14403154	         -0.07807755	          0.77126652	          0.17043431	         -0.35616341	          0.64481592	          0.20237812	         -0.14081196	          0.70713270	          0.22480574	         -0.36478674	
          0.49166667	          0.78162920	          0.99645901	         -0.27739167	          9.94553947	          0.97574210	          1.03806460	        -11.37061310	         -4.31760693	         10.89721775	         -9.26967335	          9.75218964	          0.00000000	          0.00000000	         -9.93667126	         -3.18734431	          5.81258392	         -7.19994259	          6.58057499	          0.00000000	          0.00000000	        -21.98323250	         -1.69182396	         -0.57319415	          0.71472973	          0.91036224	         -0.27361819	          0.71344548	          0.89160401	         -0.22474980	          0.71158111	          0.89348650	         -0.33128685	          0.70374972	          0.47944933	         -0.20076320	          0.71124303	          0.48154879	         -0.36153287	          0.62489808	          0.07003035	         -0.17931642	          0.65585905	          0.06866762	         -0.35759369	          0.78162920	          0.99645901	         -0.27739167	          0.78349119	          0.99457890	         -0.17099316	          0.77976727	          0.99833912	         -0.38379017	          0.57848173	          1.00273073	         -0.23030262	          0.57548350	          1.00476563	         -0.31838048	          0.71612144	          0.48254061	         -0.14264579	          0.71623343	          0.48588639	         -0.42066434	          0.69059247	          0.50072587	         -0.25921956	          0.70068848	          0.49037904	         -0.31418559	          0.62296814	          0.07238621	         -0.14143865	          0.65204036	          0.06880477	         -0.39690846	          0.62181646	          0.07044076	         -0.20986165	          0.66360396	          0.07521761	         -0.32830343	          0.58047557	          0.04571521	         -0.19036582	          0.60946888	          0.04549927	         -0.35588163	          0.69305032	          1.39315891	         -0.28141958	          0.73936975	          1.19354033	         -0.28614813	          0.60300612	          1.46033430	         -0.28881148	          0.70653230	          1.39346135	         -0.19992349	          0.70441282	          1.39139891	         -0.35530975	          0.74545479	          0.04284575	         -0.18315934	          0.78347123	          0.04221564	         -0.37267587	          0.75513411	          0.60181659	         -0.07008848	          0.85751462	          0.62594801	         -0.36144918	          0.76634735	          0.65960908	         -0.14344727	          0.78177744	          0.68493998	         -0.39829105	          0.76272142	          0.57769543	         -0.16386107	          0.77289158	          0.59862298	         -0.40004459	          0.65362716	          0.14407364	         -0.07806809	          0.77124882	          0.17049551	         -0.35614616	          0.64446765	          0.20251971	         -0.14077356	          0.70723581	          0.22496426	         -0.36481392	
          0.50000000	          0.78153706	          0.99652952	         -0.27734408	          9.96311378	          0.96981782	          1.02466691	        -11.38440895	         -4.30834770	         10.90447426	         -9.27209091	          9.75540352	          0.00000000	          0.00000000	         -9.94460678	         -3.19595933	          5.79949474	         -7.21479607	          6.59113216	          0.00000000	          0.00000000	        -21.98592567	         -1.65816450	         -0.68058097	          0.71464002	          0.91039819	         -0.27353185	          0.71337295	          0.89165968	         -0.22470619	          0.71153247	          0.89352977	         -0.33124384	          0.70369571	          0.47949240	         -0.20074001	          0.71126789	          0.48161203	         -0.36150351	          0.62485659	          0.07009836	         -0.17929338	          0.65584832	          0.06871053	         -0.35759109	          0.78153706	          0.99652952	         -0.27734408	          0.78337526	          0.99466175	         -0.17093782	          0.77969885	          0.99839729	         -0.38375035	          0.57836080	          1.00274706	         -0.23027934	          0.57538891	          1.00476706	         -0.31834269	          0.71606135	          0.48258150	         -0.14262117	          0.71625757	          0.48595265	         -0.42063484	          0.69047374	          0.50082636	         -0.25921252	          0.70062256	          0.49049088	         -0.31414261	          0.62292314	          0.07245497	         -0.14141583	          0.65203053	          0.06885044	         -0.39690593	          0.62183970	          0.07049631	         -0.20986076	          0.66353357	          0.07526521	         -0.32829863	          0.58046782	          0.04573886	         -0.19035357	          0.60946631	          0.04552314	         -0.35588473	          0.69279855	          1.39325094	         -0.28141299	          0.73918265	          1.19364548	         -0.28605762	          0.60283619	          1.46035099	         -0.28879246	          0.70610291	          1.39355052	         -0.19984747	          0.70432234	          1.39150000	         -0.35531852	          0.74543661	          0.04288132	         -0.18315597	          0.78344786	          0.04225957	         -0.37267283	          0.75505054	          0.60187268	         -0.07005472	          0.85748035	          0.62603062	         -0.36139813	          0.76628286	          0.65967619	         -0.14343610	          0.78175330	          0.68504441	         -0.39825881	          0.76263058	          0.57777214	         -0.16385190	          0.77285188	          0.59870028	         -0.40000442	          0.65357774	          0.14411381	         -0.07806379	          0.77122825	          0.17053320	         -0.35613218	          0.64428300	          0.20261084	         -0.14075451	          0.70710647	          0.22508831	         -0.36479849	
